<?xml version="1.0" encoding="UTF-8" standalone="no"?>
<svg
   viewBox="0 0 60.000488 60.00005"
   width="60.000488"
   height="60.00005"
   version="1.1"
   id="svg1"
   xml:space="preserve"
   xmlns="http://www.w3.org/2000/svg"
   xmlns:svg="http://www.w3.org/2000/svg"><defs
     id="defs1" /><g
     id="layer1"
     transform="matrix(1.3101688,0,0,1.333992,13.503714,7.5134407)"><path
       d="m -3.467,32.66 c 8.403,8.401 21.644,8.987 30.734,1.78 l 1.894,1.892 -1.573,1.572 12.844,12.843 c -0.478,0.756 -0.685,1.338 -0.446,1.575 l 0.703,0.702 c 1.143,1.145 10.104,-7.819 8.961,-8.962 L 48.947,43.361 C 48.71,43.123 48.129,43.328 47.375,43.806 L 34.529,30.963 32.957,32.535 31.064,30.642 c 7.206,-9.091 6.621,-22.333 -1.779,-30.735 -9.044,-9.043 -23.708,-9.043 -32.752,0 -9.045,9.046 -9.043,23.709 0,32.753 M -0.738,2.638 c 7.536,-7.537 19.759,-7.537 27.293,0 7.537,7.535 7.537,19.758 0,27.293 -7.536,7.538 -19.755,7.536 -27.293,0 -7.534,-7.537 -7.536,-19.756 0,-27.293"
       fill="#000000"
       id="path1-3"
       style="fill:#ffffff;fill-opacity:1" /><path
       d="m -3.567,15.027 a 16.585,16.585 0 0 0 3.789,5.879 C 6.735,27.42 17.298,27.42 23.814,20.903 A 16.61,16.61 0 0 0 28.627,10.66 c 2.256,5.949 1,12.926 -3.79,17.716 -6.515,6.515 -17.078,6.515 -23.593,0 -3.654,-3.651 -5.255,-8.577 -4.811,-13.349"
       fill="#000000"
       id="path2"
       style="fill:#ffffff;fill-opacity:1" /></g><text
     xml:space="preserve"
     style="font-size:20.783px;writing-mode:lr-tb;direction:ltr;fill:#ffffff;stroke-width:1.73192"
     x="12.528464"
     y="26.112175"
     id="text32"
     transform="scale(0.90001111,1.1110974)"><tspan
       id="tspan32"
       x="12.528464"
       y="26.112175"
       style="stroke-width:1.73192">RTK</tspan></text></svg>
